<svg id="Слой_1" data-name="Слой 1" xmlns="http://www.w3.org/2000/svg" xmlns:xlink="http://www.w3.org/1999/xlink" viewBox="0 0 128 128"><defs><style>.cls-1{fill:url(#linear-gradient);}.cls-2{fill:#c1daea;}.cls-3{fill:#9cc6d9;}.cls-4{fill:#fff;}</style><linearGradient id="linear-gradient" x1="63.97" y1="128" x2="63.97" y2="0.05" gradientUnits="userSpaceOnUse"><stop offset="0" stop-color="#0093d4"/><stop offset="1" stop-color="#00b0e5"/></linearGradient></defs><circle class="cls-1" cx="63.97" cy="64.03" r="63.97"/><path class="cls-2" d="M43.3,68.7l7.6,21s.94,2,2,2S69,76,69,76L85.8,43.49,43.58,63.28Z"/><path class="cls-3" d="M53.37,74.09,51.91,89.57s-.61,4.75,4.14,0,9.28-8.4,9.28-8.4Z"/><path class="cls-4" d="M43.44,69.45,27.83,64.36a2,2,0,0,1-1.26-2.47c.12-.35.37-.65,1.11-1.17,3.46-2.42,64-24.19,64-24.19a5.21,5.21,0,0,1,2.72-.19,1.48,1.48,0,0,1,1,1.1,5.21,5.21,0,0,1,.14,1.37c0,.4-.06.78-.09,1.36-.37,5.95-11.41,50.38-11.41,50.38s-.66,2.6-3,2.68A4.29,4.29,0,0,1,77.89,92c-4.64-4-20.7-14.78-24.24-17.15a.66.66,0,0,1-.29-.48c0-.25.22-.56.22-.56S81.53,49,82.27,46.37c.06-.2-.16-.3-.45-.21-1.86.68-34,21-37.59,23.24A1.61,1.61,0,0,1,43.44,69.45Z"/></svg>