<svg id="Слой_1" data-name="Слой 1" xmlns="http://www.w3.org/2000/svg" xmlns:xlink="http://www.w3.org/1999/xlink" viewBox="0 0 128 128"><defs><style>.cls-1{fill:url(#linear-gradient);}.cls-2{fill:#fff;fill-rule:evenodd;}</style><linearGradient id="linear-gradient" x1="63.97" y1="118.7" x2="63.97" y2="-9.25" gradientUnits="userSpaceOnUse"><stop offset="0" stop-color="#27cd44"/><stop offset="1" stop-color="#5ffb7c"/></linearGradient></defs><circle class="cls-1" cx="63.97" cy="64.03" r="63.97"/><g id="WA_Logo" data-name="WA Logo"><path class="cls-2" d="M94.75,34A40.59,40.59,0,0,0,30.87,83l-5.75,21,21.51-5.64A40.44,40.44,0,0,0,66,103.31h0A40.59,40.59,0,0,0,94.75,34ZM66,96.46h0a33.68,33.68,0,0,1-17.17-4.7L47.63,91,34.86,94.38l3.41-12.45-.8-1.27A33.73,33.73,0,1,1,66,96.46ZM84.54,71.2c-1-.5-6-3-6.93-3.29s-1.6-.51-2.28.5-2.62,3.3-3.21,4-1.18.76-2.2.25a27.84,27.84,0,0,1-8.15-5,30.78,30.78,0,0,1-5.64-7c-.59-1-.06-1.57.44-2.07s1-1.19,1.52-1.78a6.8,6.8,0,0,0,1-1.69A1.83,1.83,0,0,0,59,53.28c-.25-.51-2.28-5.5-3.12-7.53S54.24,44,53.62,44s-1.27,0-1.95,0A3.75,3.75,0,0,0,49,45.24a11.38,11.38,0,0,0-3.55,8.46c0,5,3.63,9.81,4.14,10.48S56.71,75.1,66.88,79.49a58.15,58.15,0,0,0,5.78,2.14,14,14,0,0,0,6.39.4c2-.29,6-2.45,6.85-4.82s.84-4.4.59-4.82S85.56,71.71,84.54,71.2Z"/></g></svg>